<?xml version="1.0" standalone="no"?>
<!DOCTYPE svg PUBLIC "-//W3C//DTD SVG 20010904//EN"
 "http://www.w3.org/TR/2001/REC-SVG-20010904/DTD/svg10.dtd">
<svg version="1.0" xmlns="http://www.w3.org/2000/svg"
 width="420.000000pt" height="420.000000pt" viewBox="0 0 420.000000 420.000000"
 preserveAspectRatio="xMidYMid meet">

<g transform="translate(0.000000,420.000000) scale(0.100000,-0.100000)"
fill="#000000" stroke="none">
<path d="M2810 4071 c0 -5 -22 -12 -50 -16 -27 -4 -50 -11 -50 -16 0 -5 -9 -9
-19 -9 -11 0 -26 -7 -35 -15 -8 -8 -24 -15 -35 -15 -12 0 -21 -6 -21 -15 0 -8
-9 -15 -20 -15 -11 0 -20 -4 -20 -10 0 -5 -11 -12 -25 -16 -14 -3 -25 -12 -25
-20 0 -8 -7 -14 -15 -14 -8 0 -15 -4 -15 -10 0 -5 -7 -10 -15 -10 -8 0 -15 -6
-15 -14 0 -8 -11 -17 -25 -20 -14 -4 -25 -11 -25 -16 0 -6 -7 -10 -15 -10 -8
0 -15 -7 -15 -15 0 -8 -7 -15 -15 -15 -8 0 -15 -6 -15 -13 0 -8 -11 -20 -25
-27 -14 -7 -25 -19 -25 -27 0 -7 -7 -13 -15 -13 -8 0 -15 -7 -15 -15 0 -8 -7
-15 -15 -15 -9 0 -15 -9 -15 -25 0 -15 -6 -25 -14 -25 -8 0 -16 -4 -18 -10 -4
-13 -48 -1 -48 14 0 7 -13 23 -30 36 -16 14 -29 31 -30 38 0 6 -4 12 -8 12 -5
0 -25 16 -45 35 -20 19 -41 35 -47 35 -5 0 -10 6 -10 14 0 8 -13 17 -30 21
-16 4 -30 11 -30 16 0 5 -7 9 -15 9 -8 0 -15 4 -15 10 0 5 -11 12 -25 16 -14
3 -25 10 -25 14 0 5 -13 11 -30 15 -16 4 -30 10 -30 15 0 4 -11 11 -25 14 -14
4 -25 11 -25 16 0 6 -18 10 -40 10 -27 0 -43 5 -46 15 -5 11 -21 15 -59 15
-34 0 -55 5 -58 13 -5 16 -417 17 -438 1 -8 -7 -43 -14 -78 -16 -37 -3 -67
-10 -69 -16 -2 -7 -12 -12 -23 -12 -27 0 -59 -35 -59 -65 0 -14 4 -25 9 -25 5
0 13 -10 17 -22 4 -13 10 -25 14 -28 4 -3 11 -15 15 -28 5 -19 3 -25 -14 -29
-12 -3 -21 -9 -21 -13 0 -4 -11 -11 -25 -14 -14 -4 -25 -11 -25 -16 0 -6 -7
-10 -15 -10 -8 0 -15 -4 -15 -9 0 -5 -10 -13 -22 -16 -11 -4 -31 -18 -43 -31
-12 -13 -25 -24 -29 -24 -6 0 -35 -23 -61 -47 -8 -7 -16 -13 -20 -13 -3 0 -16
-11 -29 -25 -13 -14 -28 -25 -35 -25 -6 0 -11 -7 -11 -15 0 -8 -7 -15 -15 -15
-8 0 -15 -7 -15 -15 0 -8 -5 -15 -11 -15 -14 0 -69 -55 -69 -69 0 -6 -7 -11
-15 -11 -8 0 -15 -6 -15 -14 0 -8 -7 -16 -15 -20 -8 -3 -15 -12 -15 -21 0 -8
-5 -15 -10 -15 -6 0 -14 -8 -17 -17 -4 -10 -17 -27 -30 -39 -13 -12 -23 -26
-23 -33 0 -6 -7 -11 -15 -11 -9 0 -15 -9 -15 -25 0 -16 -6 -25 -15 -25 -8 0
-15 -7 -15 -15 0 -8 -4 -15 -9 -15 -5 0 -12 -11 -15 -25 -4 -14 -11 -25 -16
-25 -6 0 -10 -7 -10 -15 0 -7 -7 -18 -15 -23 -9 -4 -17 -18 -18 -30 -1 -12 -7
-22 -14 -22 -7 0 -13 -5 -13 -11 0 -6 -7 -17 -15 -25 -8 -9 -15 -29 -15 -45 0
-16 -4 -29 -10 -29 -5 0 -12 -16 -16 -35 -3 -19 -10 -35 -14 -35 -4 0 -10 -27
-14 -60 -4 -33 -11 -60 -16 -60 -6 0 -10 -75 -10 -185 0 -102 4 -185 9 -185 4
0 12 -31 15 -70 4 -38 11 -70 16 -70 4 0 10 -10 14 -23 3 -13 23 -33 46 -46
22 -12 40 -26 40 -32 0 -5 7 -9 16 -9 13 0 15 -8 9 -52 -4 -29 -11 -54 -16
-56 -5 -2 -9 -28 -9 -58 0 -41 -4 -54 -15 -54 -9 0 -15 -9 -15 -25 0 -16 6
-25 15 -25 8 0 15 -7 15 -15 0 -10 14 -17 40 -21 22 -4 40 -10 40 -15 0 -5 17
-9 38 -9 41 0 72 -26 72 -59 0 -11 6 -26 14 -33 7 -8 17 -29 21 -46 3 -18 11
-32 16 -32 5 0 9 -12 9 -26 0 -14 7 -32 15 -40 8 -9 15 -28 15 -44 0 -16 5
-30 10 -32 6 -2 13 -33 17 -71 3 -37 9 -67 14 -67 4 0 11 -25 14 -55 4 -30 11
-55 16 -55 5 0 9 -18 9 -40 0 -27 5 -43 15 -46 11 -5 15 -23 15 -71 0 -44 5
-69 15 -79 10 -11 15 -36 15 -79 0 -35 5 -65 10 -67 6 -2 13 -43 17 -91 3 -48
10 -87 14 -87 5 0 9 -11 9 -25 0 -14 -4 -25 -10 -25 -6 0 -10 -27 -10 -60 0
-53 3 -64 26 -85 15 -14 33 -25 40 -25 8 0 14 -4 14 -10 0 -5 13 -10 29 -10
16 0 36 -7 45 -15 8 -8 31 -15 51 -15 19 0 52 -7 72 -15 23 -10 68 -15 129
-15 77 0 94 -3 94 -15 0 -8 4 -15 10 -15 5 0 13 -12 16 -27 8 -31 27 -53 44
-53 6 0 18 -7 26 -15 9 -8 24 -15 34 -15 10 0 31 -7 46 -15 17 -8 55 -15 90
-15 33 0 65 -5 70 -10 22 -22 784 6 807 29 6 6 45 11 88 11 45 0 91 6 112 15
20 8 65 15 101 15 35 0 66 5 68 10 2 6 33 13 71 17 37 3 67 9 67 13 0 4 25 11
55 15 30 3 55 11 55 16 0 5 17 9 38 9 20 0 46 7 56 15 11 8 37 15 59 15 21 0
45 7 53 15 9 8 31 15 50 15 19 0 33 4 30 9 -6 10 26 21 62 21 12 0 22 4 22 9
0 5 18 11 40 15 22 3 40 11 40 16 0 6 12 10 26 10 14 0 32 7 40 15 9 8 24 15
35 15 10 0 19 4 19 10 0 5 17 12 38 16 20 4 39 10 42 13 3 3 28 17 55 31 28
14 60 35 72 48 12 12 25 22 28 22 11 0 35 28 35 40 0 6 7 13 15 16 8 4 15 16
15 28 0 34 12 44 63 51 26 4 47 11 47 15 0 4 12 11 27 15 15 3 30 10 33 13 3
4 21 16 40 26 19 10 48 26 65 35 40 22 111 92 119 119 4 12 12 22 17 22 5 0 9
25 9 56 0 52 -2 58 -44 100 -25 24 -49 44 -55 44 -6 0 -11 7 -11 15 0 8 -7 15
-15 15 -8 0 -15 5 -15 11 0 6 -13 24 -30 41 -16 16 -30 36 -30 44 0 8 -4 14
-10 14 -5 0 -10 7 -10 15 0 8 -7 15 -15 15 -9 0 -15 9 -15 24 0 13 -7 26 -15
30 -8 3 -15 17 -15 31 0 16 -6 25 -15 25 -9 0 -15 9 -15 25 0 14 -4 25 -10 25
-5 0 -10 9 -10 19 0 11 -7 26 -15 35 -8 8 -15 26 -15 40 0 13 -7 31 -15 40 -8
8 -15 24 -15 36 0 12 -7 28 -15 36 -9 9 -15 34 -15 60 0 32 4 44 15 44 10 0
15 10 15 29 0 16 6 31 13 33 9 4 13 58 15 216 3 201 4 211 23 217 23 8 89 71
89 85 0 6 4 10 10 10 5 0 12 11 16 25 3 14 12 25 20 25 8 0 14 7 14 15 0 8 4
15 9 15 5 0 11 18 15 40 3 22 11 40 16 40 6 0 10 14 10 30 0 17 -4 30 -10 30
-5 0 -12 11 -16 24 -3 14 -15 27 -29 30 -13 3 -27 15 -30 26 -3 11 -11 20 -16
20 -5 0 -9 9 -9 20 0 11 -7 20 -15 20 -8 0 -15 7 -15 15 0 8 -4 15 -9 15 -5 0
-13 10 -17 23 -4 12 -17 31 -29 43 -13 11 -26 31 -30 42 -3 12 -11 22 -16 22
-5 0 -9 7 -9 15 0 8 -7 15 -15 15 -8 0 -15 7 -15 15 0 8 -6 15 -12 15 -10 0
-10 2 0 9 11 7 11 9 -2 14 -9 4 -16 13 -16 22 0 8 -4 15 -10 15 -5 0 -12 11
-16 25 -3 14 -10 25 -15 25 -5 0 -9 7 -9 15 0 8 -7 15 -15 15 -9 0 -15 9 -15
24 0 13 -7 26 -15 30 -8 3 -15 17 -15 31 0 14 -4 25 -9 25 -5 0 -13 10 -17 23
-4 12 -12 25 -18 29 -7 5 -12 57 -14 143 -2 74 -8 135 -13 135 -5 0 -9 20 -9
44 0 26 -6 51 -15 60 -8 8 -15 22 -15 30 0 9 -4 16 -10 16 -5 0 -10 9 -10 20
0 11 5 20 10 20 6 0 10 47 10 120 0 111 -2 122 -22 143 -21 20 -32 22 -136 22
-69 -1 -116 -5 -120 -11 -4 -6 -24 -14 -44 -18 -21 -4 -38 -11 -38 -16 0 -6
-13 -10 -30 -10 -20 0 -30 -5 -30 -15 0 -10 -10 -15 -30 -15 -20 0 -30 5 -30
15 0 8 -4 15 -10 15 -5 0 -10 11 -10 25 0 16 -6 25 -15 25 -9 0 -18 7 -21 15
-5 11 -23 15 -75 15 -38 0 -69 -4 -69 -9z m-162 -778 c2 -8 20 -13 43 -13 26
0 42 -5 45 -15 4 -8 17 -15 30 -15 13 0 24 -4 24 -10 0 -5 6 -10 14 -10 19 0
76 -57 76 -76 0 -8 5 -14 10 -14 6 0 10 -7 10 -15 0 -8 7 -15 15 -15 9 0 15
-10 15 -26 0 -14 7 -32 15 -40 8 -9 15 -28 15 -44 0 -16 5 -30 11 -32 5 -2 13
-22 16 -46 3 -23 9 -42 13 -42 4 0 10 -21 13 -47 3 -26 10 -49 16 -51 7 -2 11
-31 11 -72 l0 -67 -52 -5 c-29 -3 -54 -11 -56 -17 -2 -6 -16 -11 -32 -11 -16
0 -35 -7 -44 -15 -8 -8 -31 -15 -51 -15 -20 0 -43 -7 -51 -15 -9 -8 -31 -15
-50 -15 -19 0 -34 -4 -34 -9 0 -5 -22 -12 -50 -16 -27 -4 -50 -10 -50 -15 0
-4 -19 -10 -42 -13 -24 -3 -44 -11 -46 -16 -2 -6 -23 -11 -47 -11 -25 0 -50
-6 -59 -15 -8 -8 -32 -15 -56 -15 -23 0 -39 -4 -36 -9 7 -11 -27 -21 -71 -21
-18 0 -33 -4 -33 -10 0 -5 -11 -10 -24 -10 -14 0 -37 -5 -53 -11 -44 -18 -106
-28 -130 -22 -23 5 -23 7 -23 168 0 102 4 165 10 167 6 2 13 33 17 71 3 37 9
67 13 67 4 0 11 25 15 55 3 30 10 55 14 55 5 0 11 19 14 42 3 24 11 44 16 46
6 2 11 15 11 28 0 14 7 27 15 30 9 4 15 19 15 39 0 20 6 35 15 39 8 3 15 14
15 25 0 11 15 36 34 55 26 28 41 36 70 36 20 0 36 4 36 9 0 15 44 19 219 17
122 -1 165 -4 169 -13z m-1343 -603 c4 -16 11 -30 16 -30 5 0 9 -18 9 -39 0
-22 7 -46 15 -55 8 -8 15 -26 15 -41 0 -14 7 -28 15 -31 9 -4 15 -19 15 -41 0
-19 7 -41 15 -49 8 -9 15 -29 15 -45 0 -16 4 -29 9 -29 5 0 12 -13 16 -30 4
-16 11 -30 16 -30 15 0 10 -40 -7 -57 -8 -9 -36 -18 -62 -21 -26 -3 -50 -9
-53 -14 -3 -5 -25 -12 -48 -15 -22 -3 -41 -9 -41 -13 0 -4 -25 -11 -55 -15
-30 -3 -55 -11 -55 -16 0 -5 -11 -9 -25 -9 -14 0 -42 -7 -62 -15 -19 -8 -46
-15 -59 -15 -13 0 -24 -4 -24 -10 0 -5 -18 -13 -40 -16 -22 -4 -40 -10 -40
-15 0 -5 -7 -9 -15 -9 -11 0 -15 11 -15 40 0 22 4 40 9 40 5 0 12 14 16 30 4
17 11 30 16 30 5 0 9 11 9 24 0 14 6 31 13 38 8 7 17 26 21 41 3 15 11 27 16
27 6 0 10 9 10 20 0 11 4 20 10 20 5 0 12 11 16 25 3 14 10 25 14 25 5 0 12
10 16 23 4 12 17 32 30 44 13 12 24 27 24 33 0 6 7 13 15 16 8 4 15 15 15 25
0 10 7 19 15 19 8 0 15 7 15 15 0 8 7 15 15 15 8 0 15 5 15 11 0 6 18 29 40
50 22 22 40 43 40 49 0 5 7 10 15 10 8 0 15 5 15 10 0 23 19 8 25 -20z m2072
-597 c-4 -21 -11 -39 -17 -41 -6 -2 -10 -42 -10 -98 0 -52 -4 -94 -9 -94 -5 0
-12 -14 -16 -30 l-7 -31 -66 3 c-64 3 -67 4 -70 29 -2 15 4 33 12 42 9 9 16
27 16 41 0 16 6 26 15 26 10 0 15 10 15 30 0 17 4 30 10 30 5 0 12 11 16 25 3
14 10 25 14 25 4 0 11 12 14 26 10 37 27 53 60 54 28 0 28 -1 23 -37z m-1007
-108 c0 -8 7 -15 15 -15 9 0 15 -9 15 -25 0 -14 5 -25 10 -25 6 0 14 -8 17
-17 7 -18 15 -29 41 -58 6 -7 12 -16 12 -20 0 -10 131 -135 141 -135 5 0 9 -4
9 -10 0 -5 11 -12 25 -16 14 -3 25 -10 25 -14 0 -4 11 -11 25 -14 14 -4 25
-11 25 -16 0 -6 6 -10 14 -10 8 0 16 -7 20 -15 3 -8 16 -15 29 -15 13 0 32 -7
43 -15 10 -8 36 -15 56 -15 20 0 38 -5 40 -12 2 -6 30 -13 61 -16 31 -2 54 -8
51 -13 -3 -5 45 -9 105 -9 61 0 111 4 111 9 0 4 27 11 60 15 33 4 60 11 60 16
0 6 11 10 24 10 14 0 37 5 52 10 43 17 64 -16 64 -101 0 -37 4 -69 10 -71 5
-1 12 -36 16 -75 4 -40 10 -73 14 -73 4 0 10 -37 13 -82 4 -46 11 -84 17 -86
6 -2 10 -43 10 -97 0 -70 4 -97 15 -109 11 -10 15 -37 15 -95 0 -65 -3 -81
-15 -81 -8 0 -15 -4 -15 -10 0 -5 -11 -12 -25 -16 -14 -3 -25 -10 -25 -14 0
-5 -13 -11 -30 -15 -16 -4 -30 -10 -30 -14 0 -4 -31 -18 -70 -31 -38 -13 -70
-28 -70 -32 0 -4 -8 -8 -19 -8 -10 0 -32 -7 -47 -15 -16 -8 -39 -15 -51 -15
-13 0 -23 -4 -23 -10 0 -5 -18 -13 -40 -16 -22 -4 -40 -10 -40 -14 0 -4 -19
-10 -42 -13 -24 -3 -44 -11 -46 -16 -2 -6 -13 -11 -24 -11 -11 0 -43 -7 -72
-16 -82 -26 -108 -32 -158 -39 -27 -4 -48 -11 -48 -16 0 -5 -17 -9 -39 -9 -21
0 -58 -7 -81 -15 -23 -8 -60 -15 -81 -15 -21 0 -64 -7 -96 -15 -31 -8 -85 -15
-118 -15 -34 0 -65 -4 -70 -9 -6 -5 -76 -13 -157 -17 -82 -4 -148 -11 -148
-15 0 -5 -119 -9 -265 -9 -149 0 -265 4 -265 9 0 5 -35 11 -77 13 -92 4 -123
23 -123 74 0 19 -6 34 -15 38 -8 3 -15 17 -15 31 0 14 -4 25 -10 25 -5 0 -10
9 -10 19 0 11 -7 26 -15 35 -8 8 -15 26 -15 40 0 13 -7 31 -15 40 -8 8 -15 24
-15 36 0 12 -7 28 -15 36 -8 9 -15 26 -15 40 0 13 -4 24 -10 24 -5 0 -12 16
-16 35 -3 19 -10 35 -14 35 -4 0 -10 18 -14 40 -3 22 -11 40 -16 40 -6 0 -10
13 -10 29 0 16 -7 36 -15 45 -8 8 -15 30 -15 49 0 22 -6 37 -15 41 -17 6 -20
42 -5 51 6 3 17 -1 26 -9 8 -9 24 -16 35 -16 10 0 19 -4 19 -8 0 -17 125 -59
245 -84 33 -7 94 -12 135 -12 75 0 200 22 200 35 0 4 14 10 30 14 17 4 30 10
30 15 0 4 11 11 25 14 14 4 25 11 25 16 0 6 9 10 20 10 11 0 20 4 20 10 0 5
11 12 25 16 14 3 25 12 25 20 0 8 7 14 15 14 8 0 15 5 15 11 0 14 25 39 39 39
6 0 11 7 11 15 0 8 6 15 14 15 8 0 17 11 20 25 4 14 11 25 16 25 6 0 10 6 10
14 0 8 7 16 15 20 8 3 15 17 15 31 0 16 6 25 15 25 8 0 15 7 15 15 0 8 4 15 9
15 5 0 11 18 15 40 3 22 11 40 16 40 6 0 10 11 10 25 0 14 7 28 15 31 11 5 15
23 15 74 0 46 4 70 13 72 9 3 13 44 15 146 2 78 7 142 12 142 5 0 12 9 15 20
5 16 15 20 46 20 21 0 39 4 39 9 0 13 25 18 88 20 40 1 52 -2 52 -14z m-730
-274 c0 -22 -5 -41 -11 -43 -6 -2 -13 -34 -16 -71 -3 -37 -9 -67 -13 -67 -4 0
-10 -37 -13 -82 -3 -45 -10 -84 -16 -86 -6 -2 -11 -10 -11 -17 0 -46 -91 -62
-124 -23 -12 14 -15 23 -8 26 6 2 14 19 18 38 3 19 10 34 15 34 5 0 9 11 9 24
0 14 6 31 13 38 8 7 17 26 21 41 3 15 11 27 16 27 6 0 10 12 10 26 0 14 7 32
15 40 8 9 15 24 15 35 0 10 4 19 9 19 5 0 13 9 16 21 8 24 36 59 47 59 5 0 8
-18 8 -39z"/>
<path d="M1590 764 c0 -8 5 -14 10 -14 6 0 10 -7 10 -15 0 -8 7 -15 15 -15 8
0 15 -4 15 -9 0 -5 14 -12 30 -16 17 -4 30 -11 30 -16 0 -5 18 -12 40 -15 22
-4 40 -10 40 -14 0 -4 19 -10 42 -13 24 -3 44 -11 46 -16 2 -6 25 -11 51 -11
26 0 68 -7 93 -15 94 -33 603 -4 610 34 7 33 -5 69 -25 80 -17 9 -40 9 -97 -1
-161 -28 -630 -13 -715 22 -11 5 -33 11 -50 15 -16 4 -32 10 -35 14 -3 5 -29
10 -57 13 -40 4 -53 2 -53 -8z"/>
</g>
</svg>
